<?xml version="1.0" encoding="UTF-8" standalone="no"?>
<!-- Created with Inkscape (http://www.inkscape.org/) -->

<svg
   width="369.90625"
   height="159.99998"
   viewBox="0 0 97.871027 42.333331"
   version="1.1"
   id="svg6548"
   sodipodi:docname="options_footer_btn_done.svg"
   inkscape:version="1.1.2 (0a00cf5339, 2022-02-04)"
   xmlns:inkscape="http://www.inkscape.org/namespaces/inkscape"
   xmlns:sodipodi="http://sodipodi.sourceforge.net/DTD/sodipodi-0.dtd"
   xmlns="http://www.w3.org/2000/svg"
   xmlns:svg="http://www.w3.org/2000/svg">
  <sodipodi:namedview
     id="namedview13"
     pagecolor="#ffffff"
     bordercolor="#666666"
     borderopacity="1.0"
     inkscape:pageshadow="2"
     inkscape:pageopacity="0.0"
     inkscape:pagecheckerboard="0"
     showgrid="false"
     width="369.906px"
     inkscape:zoom="2.4710515"
     inkscape:cx="124.03626"
     inkscape:cy="68.59428"
     inkscape:window-width="1920"
     inkscape:window-height="1016"
     inkscape:window-x="0"
     inkscape:window-y="0"
     inkscape:window-maximized="1"
     inkscape:current-layer="svg6548"
     fit-margin-top="0"
     fit-margin-left="0"
     fit-margin-right="0"
     fit-margin-bottom="0" />
  <defs
     id="defs6545" />
  <g
     id="layer1">
    <path
       style="fill:#e37373;fill-opacity:1;fill-rule:nonzero;stroke:none;stroke-width:0.352778"
       d="M 97.87103,42.333328 H 0 V 0 h 97.87103 z m 0,0"
       id="path578" />
    <g
       style="fill:#fde647;fill-opacity:1"
       id="g586"
       transform="matrix(0.35277777,0,0,0.35277777,-318.55833,-776.46387)">
      <g
         id="use580"
         transform="translate(958.75098,2286.7393)">
        <path
           style="stroke:none"
           d="m 12.390625,-23.40625 44.84375,-1.078125 0.15625,6.765625 -10.515625,0.296875 3.671875,13.03125 10.65625,-4.75 L 63.9375,-3.03125 49.75,3.453125 45.078125,1.296875 39.890625,-17.28125 28.65625,-16.984375 18.4375,3.59375 12.390625,0.578125 20.953125,-16.84375 12.59375,-16.625 Z M 51.90625,-33.484375 55.21875,-42.125 16.0625,-42.265625 14.765625,-35.0625 8.0625,-36.21875 l 1.796875,-10.078125 3.453125,-2.8125 19.234375,0.15625 -0.796875,-5.40625 6.765625,-1.078125 0.9375,6.484375 20.734375,0.140625 3.171875,4.53125 -5.1875,13.328125 z M 21.75,-29.875 l 0.28125,-6.703125 25.484375,0.9375 -0.28125,6.765625 z m 0,0"
           id="path6361" />
      </g>
      <g
         id="use582"
         transform="translate(1032.551,2286.7393)">
        <path
           style="stroke:none"
           d="m 6.90625,2.296875 3.53125,-45.78125 3.3125,-3.171875 h 24.90625 l -2.9375,-7.5625 6.328125,-2.375 3.890625,9.9375 h 10.515625 l -2.09375,-4.6875 6.1875,-2.65625 4.25,9.359375 -3.171875,4.75 H 48.59375 l 5.265625,13.46875 5.25,-6.921875 5.40625,4.109375 -7.78125,10.15625 8.359375,21.375 L 58.75,4.828125 51.84375,-12.75 40.96875,1.515625 35.5625,-2.59375 48.953125,-20.09375 41.25,-39.890625 H 16.921875 l -0.71875,8.859375 16.625,2.375 2.890625,4.171875 -5.328125,23.90625 -6.625,-1.4375 4.453125,-20.375 -12.515625,-1.875 L 13.6875,2.875 Z m 0,0"
           id="path6365" />
      </g>
      <g
         id="use584"
         transform="translate(1106.351,2286.7393)">
        <path
           style="stroke:none"
           d="m 13.3125,-16.84375 -7.625,-0.9375 4.75,-37.015625 7.703125,1.15625 z M 5.25,2.453125 4.3125,-9 11.953125,-9.640625 12.890625,1.875 Z m 0,0"
           id="path6401" />
      </g>
    </g>
  </g>
</svg>
