<?xml version="1.0" encoding="UTF-8" standalone="no"?>
<!-- Created with Inkscape (http://www.inkscape.org/) -->

<svg
   width="1560"
   height="300"
   viewBox="0 0 412.74999 79.375002"
   version="1.1"
   id="svg2401"
   sodipodi:docname="options_header_part2.svg"
   inkscape:version="1.1.2 (0a00cf5339, 2022-02-04)"
   xmlns:inkscape="http://www.inkscape.org/namespaces/inkscape"
   xmlns:sodipodi="http://sodipodi.sourceforge.net/DTD/sodipodi-0.dtd"
   xmlns="http://www.w3.org/2000/svg"
   xmlns:svg="http://www.w3.org/2000/svg">
  <sodipodi:namedview
     id="namedview2403"
     pagecolor="#ffffff"
     bordercolor="#666666"
     borderopacity="1.0"
     inkscape:pageshadow="2"
     inkscape:pageopacity="0.0"
     inkscape:pagecheckerboard="0"
     inkscape:document-units="mm"
     showgrid="false"
     units="px"
     inkscape:zoom="0.37282197"
     inkscape:cx="808.69698"
     inkscape:cy="159.5936"
     inkscape:window-width="1920"
     inkscape:window-height="1016"
     inkscape:window-x="0"
     inkscape:window-y="0"
     inkscape:window-maximized="1"
     inkscape:current-layer="layer1" />
  <defs
     id="defs2398">
    <clipPath
       id="clip7">
      <rect
         x="0"
         y="0"
         width="1171"
         height="225"
         id="rect440" />
    </clipPath>
    <clipPath
       id="clip8">
      <path
         d="M 0.667969,0 H 1170.6719 V 225 H 0.667969 Z m 0,0"
         id="path437" />
    </clipPath>
    <mask
       id="mask3">
      <g
         filter="url(#alpha)"
         id="g434">
        <rect
           x="0"
           y="0"
           width="1190"
           height="2552"
           style="fill:#000000;fill-opacity:0.399994;stroke:none"
           id="rect432" />
      </g>
    </mask>
    <filter
       id="alpha"
       filterUnits="objectBoundingBox"
       x="0"
       y="0"
       width="1"
       height="1">
      <feColorMatrix
         type="matrix"
         in="SourceGraphic"
         values="0 0 0 0 1 0 0 0 0 1 0 0 0 0 1 0 0 0 1 0"
         id="feColorMatrix386" />
    </filter>
    <clipPath
       id="clipPath2220">
      <rect
         x="0"
         y="0"
         width="1171"
         height="225"
         id="rect2218" />
    </clipPath>
    <clipPath
       id="clipPath2224">
      <path
         d="M 0.667969,0 H 1170.6719 V 225 H 0.667969 Z m 0,0"
         id="path2222" />
    </clipPath>
    <clipPath
       id="clip9">
      <rect
         x="0"
         y="0"
         width="230"
         height="171"
         id="rect457" />
    </clipPath>
    <clipPath
       id="clip10">
      <path
         d="m 164,54 h 65.27344 V 170.58984 H 164 Z m 0,0"
         id="path448" />
    </clipPath>
    <clipPath
       id="clip11">
      <path
         d="M 0.824219,11 H 101 V 90 H 0.824219 Z m 0,0"
         id="path451" />
    </clipPath>
    <clipPath
       id="clip12">
      <path
         d="M 69,0.421875 H 90 V 15 H 69 Z m 0,0"
         id="path454" />
    </clipPath>
    <clipPath
       id="clipPath2236">
      <rect
         x="0"
         y="0"
         width="230"
         height="171"
         id="rect2234" />
    </clipPath>
    <clipPath
       id="clipPath2240">
      <path
         d="m 164,54 h 65.27344 V 170.58984 H 164 Z m 0,0"
         id="path2238" />
    </clipPath>
    <clipPath
       id="clipPath2244">
      <path
         d="M 0.824219,11 H 101 V 90 H 0.824219 Z m 0,0"
         id="path2242" />
    </clipPath>
    <clipPath
       id="clipPath2248">
      <path
         d="M 69,0.421875 H 90 V 15 H 69 Z m 0,0"
         id="path2246" />
    </clipPath>
    <clipPath
       id="clip13">
      <rect
         x="0"
         y="0"
         width="230"
         height="171"
         id="rect518" />
    </clipPath>
    <clipPath
       id="clip14">
      <path
         d="m 164,55 h 65.16406 V 170.75 H 164 Z m 0,0"
         id="path509" />
    </clipPath>
    <clipPath
       id="clip15">
      <path
         d="M 0.714844,11 H 101 V 90 H 0.714844 Z m 0,0"
         id="path512" />
    </clipPath>
    <clipPath
       id="clip16">
      <path
         d="M 69,0.589844 H 90 V 16 H 69 Z m 0,0"
         id="path515" />
    </clipPath>
    <clipPath
       id="clipPath2260">
      <rect
         x="0"
         y="0"
         width="230"
         height="171"
         id="rect2258" />
    </clipPath>
    <clipPath
       id="clipPath2264">
      <path
         d="m 164,55 h 65.16406 V 170.75 H 164 Z m 0,0"
         id="path2262" />
    </clipPath>
    <clipPath
       id="clipPath2268">
      <path
         d="M 0.714844,11 H 101 V 90 H 0.714844 Z m 0,0"
         id="path2266" />
    </clipPath>
    <clipPath
       id="clipPath2272">
      <path
         d="M 69,0.589844 H 90 V 16 H 69 Z m 0,0"
         id="path2270" />
    </clipPath>
  </defs>
  <g
     inkscape:label="图层 1"
     inkscape:groupmode="layer"
     id="layer1">
    <path
       style="fill:#fdfdfd;fill-opacity:1;fill-rule:nonzero;stroke:none;stroke-width:0.352778"
       d="m 397.49512,61.421915 c -0.0882,2.73127 -2.72852,5.47219 -5.48873,5.47632 -18.93288,0.0276 -37.86575,0.0207 -56.7986,-0.008 -2.46393,-0.003 -4.56269,-1.92787 -5.49562,-4.79006 -0.0455,-0.14331 -0.27009,-1.65364 -0.19843,-2.04363 0.64078,-0.10611 0.81579,0.34589 0.93293,0.85025 0.79099,3.42029 2.56866,4.87687 5.98068,4.87687 18.17493,0.003 36.3499,-0.0138 54.52484,0.0193 2.661,0.005 4.44281,-1.15892 5.48735,-3.65317 0.18739,-0.44924 0.32385,-1.08314 1.05558,-0.72761"
       id="path794" />
    <g
       style="fill:#e37373;fill-opacity:1"
       id="g836"
       transform="matrix(0.35277777,0,0,0.35277777,-3.410645,-98.07222)">
      <g
         id="use832"
         transform="translate(957.22998,451.31009)">
        <path
           style="stroke:none"
           d="M 45,0 H 5 V -25 L 15,-35 H 30.90625 L 35,-39.09375 v -6.8125 L 30.90625,-50 H 19.09375 L 15,-45.90625 V -45 H 5 v -5 l 10,-10 h 20 l 10,10 v 15 L 35,-25 H 19.09375 L 15,-20.90625 V -10 h 30 z m 0,0"
           id="path3160" />
      </g>
      <g
         id="use834"
         transform="translate(1007.23,451.31009)">
        <path
           style="stroke:none"
           d="M 45,-10 35,0 H 15 L 5,-10 v -5 h 10 v 0.90625 L 19.09375,-10 h 11.8125 L 35,-14.09375 V -25 H 15.40625 L 5,-35 v -15 l 10,-10 h 20 l 10,10 z M 35,-35 V -45.90625 L 30.90625,-50 H 19.09375 L 15,-45.90625 v 6.8125 L 19.09375,-35 Z m 0,0"
           id="path3164" />
      </g>
    </g>
    <g
       id="use838"
       transform="matrix(0.35277777,0,0,0.35277777,375.1199,61.030554)"
       style="fill:#000000;fill-opacity:1">
      <path
         style="stroke:none"
         d="M 12.1875,-18.484375 1.421875,0.71875 0.40625,0.109375 11.171875,-19.09375 Z m 0,0"
         id="path3188" />
    </g>
    <g
       id="use840"
       transform="matrix(0.35277777,0,0,0.35277777,379.70601,61.030554)"
       style="fill:#000000;fill-opacity:1">
      <path
         style="stroke:none"
         d="m 5.6875,-14.625 c -0.875,0.875 -1.992188,1.71875 -3.34375,2.53125 v -1.921875 c 1.6875,-1.15625 3.070312,-2.507813 4.15625,-4.0625 h 1.21875 v 17.46875 H 5.6875 Z m 0,0"
         id="path3184" />
    </g>
    <g
       id="use842"
       transform="matrix(0.35277777,0,0,0.35277777,384.29212,61.030554)"
       style="fill:#000000;fill-opacity:1">
      <path
         style="stroke:none"
         d="m 0.90625,-10.3125 c 0.070312,-1.789062 0.328125,-3.210938 0.765625,-4.265625 0.445313,-1.050781 1.078125,-1.914063 1.890625,-2.59375 0.8125,-0.675781 1.804688,-1.015625 2.984375,-1.015625 1.1875,0 2.21875,0.496094 3.09375,1.484375 0.882813,0.980469 1.460937,2.214844 1.734375,3.703125 0.269531,1.492188 0.351562,3.199219 0.25,5.125 -0.09375,1.929688 -0.433594,3.5 -1.015625,4.71875 -0.574219,1.21875 -1.4375,2.070312 -2.59375,2.546875 C 6.867188,-0.128906 5.71875,-0.175781 4.5625,-0.75 3.414062,-1.332031 2.601562,-2.097656 2.125,-3.046875 1.65625,-3.992188 1.316406,-4.992188 1.109375,-6.046875 0.910156,-7.097656 0.84375,-8.519531 0.90625,-10.3125 Z m 2.140625,-0.609375 C 2.847656,-9.054688 2.914062,-7.394531 3.25,-5.9375 c 0.34375,1.449219 0.898438,2.480469 1.671875,3.09375 0.78125,0.605469 1.578125,0.726562 2.390625,0.359375 0.8125,-0.375 1.40625,-1.117187 1.78125,-2.234375 0.375,-1.125 0.5625,-2.34375 0.5625,-3.65625 0,-1.320312 -0.054688,-2.523438 -0.15625,-3.609375 -0.105469,-1.082031 -0.414062,-2.0625 -0.921875,-2.9375 -0.5,-0.882813 -1.179687,-1.34375 -2.03125,-1.375 -0.84375,-0.03906 -1.589844,0.382813 -2.234375,1.265625 -0.636719,0.875 -1.058594,2.246094 -1.265625,4.109375 z m 0,0"
         id="path3176" />
    </g>
    <g
       id="use844"
       transform="matrix(0.35277777,0,0,0.35277777,388.87824,61.030554)"
       style="fill:#000000;fill-opacity:1">
      <path
         style="stroke:none"
         d="m 0.90625,-10.3125 c 0.070312,-1.789062 0.328125,-3.210938 0.765625,-4.265625 0.445313,-1.050781 1.078125,-1.914063 1.890625,-2.59375 0.8125,-0.675781 1.804688,-1.015625 2.984375,-1.015625 1.1875,0 2.21875,0.496094 3.09375,1.484375 0.882813,0.980469 1.460937,2.214844 1.734375,3.703125 0.269531,1.492188 0.351562,3.199219 0.25,5.125 -0.09375,1.929688 -0.433594,3.5 -1.015625,4.71875 -0.574219,1.21875 -1.4375,2.070312 -2.59375,2.546875 C 6.867188,-0.128906 5.71875,-0.175781 4.5625,-0.75 3.414062,-1.332031 2.601562,-2.097656 2.125,-3.046875 1.65625,-3.992188 1.316406,-4.992188 1.109375,-6.046875 0.910156,-7.097656 0.84375,-8.519531 0.90625,-10.3125 Z m 2.140625,-0.609375 C 2.847656,-9.054688 2.914062,-7.394531 3.25,-5.9375 c 0.34375,1.449219 0.898438,2.480469 1.671875,3.09375 0.78125,0.605469 1.578125,0.726562 2.390625,0.359375 0.8125,-0.375 1.40625,-1.117187 1.78125,-2.234375 0.375,-1.125 0.5625,-2.34375 0.5625,-3.65625 0,-1.320312 -0.054688,-2.523438 -0.15625,-3.609375 -0.105469,-1.082031 -0.414062,-2.0625 -0.921875,-2.9375 -0.5,-0.882813 -1.179687,-1.34375 -2.03125,-1.375 -0.84375,-0.03906 -1.589844,0.382813 -2.234375,1.265625 -0.636719,0.875 -1.058594,2.246094 -1.265625,4.109375 z m 0,0"
         id="path3180" />
    </g>
  </g>
</svg>
